# xmcd
#
# Track frame offsets:
#	150
#	12252
#	22182
#	35737
#	47937
#	62355
#	77450
#	87852
#	103217
#	118080
#	130345
#	142740
#	157380
#	170300
#	183245
#	198832
#	212900
#	224517
#	236602
#
# Disc length: 3331 seconds
#
# Revision: 0
# Processed by: cddbd v1.5.2PL0 Copyright (c) Steve Scherf et al.
# Submitted via: audiograbber 1.83.01
#
DISCID=0f0d0113
DTITLE=Various Artist - SAVA12
DYEAR=1991
DGENRE=Karaoke
TTITLE0=Owens, Buck and The Buckaroos - Together Again
TTITLE1=Owens, Buck and The Buckaroos - Rollin' In My Sweet Baby's Arms
TTITLE2=Owens, Buck and The Buckaroos - Under Your Spell Again
TTITLE3=Craddock, Billy "Crash" - Knock Three Times
TTITLE4=Bare, Bobby - Detroit City
TTITLE5=Desert Rose Band - Ashes Of Love
TTITLE6=Murray, Anne - Snowbird
TTITLE7=Fairchild, Barbara - Teddy Bear Song
TTITLE8=Rich, Charlie - Behind Closed Doors
TTITLE9=Gayle, Crystal - Don't It Make My Brown Eyes Blue
TTITLE10=Dudley, Dave - Six Days On The Road
TTITLE11=Williams, Don - Amanda
TTITLE12=Williams, Don - You're My Best Friend
TTITLE13=Fargo, Donna - Funny Face
TTITLE14=Doyle, Holly - Queen Of The Silver Dollar
TTITLE15=Jones, George - She Thinks I Still Care
TTITLE16=Young, Faron - Hello Walls 
TTITLE17=Hart, Freddie - Easy Loving
TTITLE18=Weller, Freddy - Games People Play
EXTD=
EXTT0=
EXTT1=
EXTT2=
EXTT3=
EXTT4=
EXTT5=
EXTT6=
EXTT7=
EXTT8=
EXTT9=
EXTT10=
EXTT11=
EXTT12=
EXTT13=
EXTT14=
EXTT15=
EXTT16=
EXTT17=
EXTT18=
PLAYORDER=
